<svg xmlns="http://www.w3.org/2000/svg" viewBox="0 0 538.4102 560.6208"><path d="M350.0967,218.7969c-2.5121,9.3752-7.8673,17.577-14.8877,22.8011s-15.1307,7.0427-22.5469,5.0555-13.5307-7.6172-16.9985-15.6516-4.0046-17.815-1.4925-27.19c5.2311-19.5228,21.9912-31.9947,37.4346-27.8566S355.3278,199.2741,350.0967,218.7969Z" fill="#fff" fill-rule="evenodd"/><path d="M399.17,282.941c-4.8529,8.4055-12.1485,14.9418-20.2817,18.1709s-16.438,2.8866-23.0871-.9523c-13.8462-7.9941-16.8785-28.6642-6.7727-46.1679s29.5227-25.2127,43.3689-17.2186c6.6491,3.8389,11.0981,10.86,12.3683,19.5179S404.0226,274.5354,399.17,282.941Z" fill="#fff" fill-rule="evenodd"/><ellipse cx="187.8407" cy="268.4664" rx="28.9492" ry="36.5962" transform="translate(-109.0673 129.888) rotate(-30)" fill="#fff"/><ellipse cx="240.4084" cy="211.3043" rx="28.9492" ry="36.5962" transform="translate(-46.4979 69.4223) rotate(-15)" fill="#fff"/><path d="M282.7475,264.8344c-22.0633,0-39.9492,17.1694-39.9492,38.3489a36.881,36.881,0,0,0,.933,8.0225c-22.7961,3.59-39.2082,19.3035-39.2316,37.562,0,10.1707,5.1449,19.925,14.3028,27.1168s21.5786,11.2321,34.53,11.2321a57.8321,57.8321,0,0,0,30.2012-8.223,57.8194,57.8194,0,0,0,30.1264,8.223c12.9512,0,25.3719-4.04,34.53-11.2321s14.3027-16.9461,14.3027-27.1168c-.026-18.683-17.1924-34.6324-40.646-37.7644a36.8729,36.8729,0,0,0,.85-7.82C322.6966,282.0038,304.8108,264.8344,282.7475,264.8344Z" fill="#fff" fill-rule="evenodd"/><path d="M281.2921,562.2791a283.966,283.966,0,0,1-65.5244-7.5879c-30.2764-7.2442-106.6358-32.24-161.7256-107.7256C37.627,424.4744-.5,363.0593.005,278.7751a277.78,277.78,0,0,1,10.1689-72.7529C42.0352,93.155,137.43,39.2009,148.2032,33.4207,178.9,16.949,261.0665-18.155,360.8292,11.5256c46.2656,13.7642,87.08,38.72,121.31,74.1744a283.5839,283.5839,0,0,1,45.752,62.124,43.4994,43.4994,0,0,1-76.6777,41.1015c-8.9385-16.6738-43.6592-72.7295-115.1934-94.0117-70.6846-21.0312-130.1436,6.294-146.6826,15.168-.7823.4189-19.416,10.5234-40.8574,31.1455-26.9756,25.9453-45.3389,55.6973-54.5782,88.4287a189.5526,189.5526,0,0,0-6.8994,49.6406c-.35,58.417,25.9785,100.85,37.3135,116.3809,38.0488,52.1357,90.7851,69.3984,111.6924,74.4014,23.4687,5.6132,70.5459,11.7011,122.1308-10.5928,59.28-25.6221,88.1153-73.7979,97.7608-93.32a43.5,43.5,0,1,1,78,38.5351,289.7083,289.7083,0,0,1-40.1846,60.2237,279.2662,279.2662,0,0,1-212.4238,97.3545Z" fill="#fff"/></svg>