<svg xmlns="http://www.w3.org/2000/svg" viewBox="0 0 393.9839 336.2637"><path d="M306.6628,69.2258C302.6775,84.1,294.1814,97.1116,283.0437,105.4s-24.0048,11.1731-35.77,8.02-21.4664-12.0847-26.9679-24.8312-6.3533-28.2633-2.3679-43.137c8.2991-30.9728,34.8887-50.7592,59.39-44.1942S314.962,38.253,306.6628,69.2258Z" fill="#fff" fill-rule="evenodd"/><path d="M384.5166,170.99c-7.6992,13.3354-19.2735,23.7052-32.1769,28.8281s-26.0786,4.5795-36.6274-1.5109c-21.9669-12.6826-26.7775-45.4754-10.7448-73.2449s46.8374-40,68.8043-27.3171c10.5489,6.09,17.6072,17.2287,19.6222,30.9648S392.2158,157.6545,384.5166,170.99Z" fill="#fff" fill-rule="evenodd"/><ellipse cx="49.2451" cy="148.0261" rx="45.9277" ry="58.0595" transform="translate(-67.4154 44.4543) rotate(-30)" fill="#fff"/><ellipse cx="132.6433" cy="57.3389" rx="45.9277" ry="58.0595" transform="translate(-10.3207 36.2844) rotate(-15)" fill="#fff"/><path d="M199.8139,142.2639c-35.0033,0-63.379,27.2391-63.3791,60.84a58.5071,58.5071,0,0,0,1.48,12.7275c-36.1657,5.6952-62.2035,30.6248-62.24,59.5918,0,16.1358,8.1623,31.6108,22.6912,43.0206s34.2343,17.82,54.7812,17.82c17.3827-.0041,34.2586-4.5989,47.914-13.0457,13.6234,8.427,30.4533,13.0207,47.7952,13.0457,20.547,0,40.2524-6.41,54.7812-17.82s22.6912-26.8848,22.6912-43.0206c-.0412-29.64-27.2755-54.9439-64.4846-59.9129a58.496,58.496,0,0,0,1.349-12.4064C263.1929,169.503,234.8171,142.2639,199.8139,142.2639Z" fill="#fff" fill-rule="evenodd"/></svg>