<svg xmlns="http://www.w3.org/2000/svg" xmlns:xlink="http://www.w3.org/1999/xlink" viewBox="0 0 2024 672.6954"><defs><clipPath id="a"><rect x="0.8432" width="2022.3136" height="672.6954" fill="none"/></clipPath></defs><g clip-path="url(#a)"><path d="M2024,54.0055v618.69H0c65.62-30.95,120.75-84.25,159.84-177.13,99.2-235.72,360.89-252.12,496.65-187s410.14,65.69,475.64-93.67,267.71-293.74,503.31-131.1C1763.67,172.3254,1913.78,120.0454,2024,54.0055Z" fill="#eef4f8"/><path d="M1547.9867,380.3246a153.86,153.86,0,0,0,17.4962-24.5873c6.15-10.3808,11.7634-19.832,15.0287-32.5249,3.0273-11.7633,2.4314-21.572,1.0964-40.7246a319.2855,319.2855,0,0,0-6.0185-46.4572c-5.3515-25.7911-12.5025-43.99-21.31-66.1343-10.6543-26.7684-20.3919-45.8852-29.2468-63.1309-13.3487-26.0294-23.4792-41.4874-43.7163-72.4152-15.0171-22.9188-21.4889-31.1185-28.9733-30.3319-4.0044.4171-9.8564,3.5636-22.8117,34.8131a401.2957,401.2957,0,0,0-17.6387,52.4522q-28.2816-.3933-56.5639-.7747c-40.32-50.9862-72.3916-86.3476-81.3064-89.3629C1266.8951-1.2615,1262.14.8719,1262.14.8719a16.4561,16.4561,0,0,0-6.2931,5.6016c-2.1573,2.9438-2.8842,5.47-4.0283,9.022-2.8719,8.8672-2.9318,7.2344-4.982,13.9324-2.6455,8.605-3.4917,14.3734-6.5667,29.5215-2.5268,12.49-2.1217,9.4631-6.8291,31.9767-.1786.87-1.3943,6.4954-3.8257,17.7581-2.5146,11.6322-3.7186,17.6032-6.0068,22.4063a67.4469,67.4469,0,0,1-9.57,14.4926c-7.7591,9.5226-12.0137,19.3671-20.5,39.08-2.5268,5.8639-13.8131,32.9063-19.9514,71.3188a296.5927,296.5927,0,0,0-3.7419,55.7773q-43.0488,1.8592-86.0737,3.7662,43.1019-.0537,86.2168-.1192c.25,5.22.6076,9.2485.87,11.9063.2147,2.181.4533,4.231.6913,6.1617a254.054,254.054,0,0,0-69.5424,33.8836,320.773,320.773,0,0,1,69.9719-30.7372,133.4091,133.4091,0,0,0,3.778,18.366,304.7939,304.7939,0,0,0-72.2485,61.3909c12.4426-11.382,26.482-23.2049,42.2143-35.0158,10.7741-8.0806,21.31-15.3984,31.464-21.9772,8.1763,22.585,22.0133,36.5293,28.6515,43.0843,15.1957,14.9813,29.5814,21.87,47.8283,30.6061,25.5166,12.2161,47.22,17.4006,61.9626,20.8331a353.5255,353.5255,0,0,0,37.3754,6.6265,199.89,199.89,0,0,0-32.3817,43.3228q-21.4528.2682-42.9057.5482a136.1782,136.1782,0,0,0-40.45,22.4063c-16.84,13.5271-25.97,27.5192-31.9767,36.8869a170.8891,170.8891,0,0,0-24.5872,62.3085,161.87,161.87,0,0,0-1.37,44.2763,163.9126,163.9126,0,0,0,11.4771,45.0866c3.8018,9.2128,9.5706,22.883,21.8578,37.4471a124.187,124.187,0,0,0,17.77,17.21c-17.1982-1.2514-30.9513-2.0023-40.45-2.4552-8.9271-.4291-17.8419-1.2515-26.7805-1.3706a157.1505,157.1505,0,0,1-23.5025-1.6328c-7.425-1.12-11.8466-2.3956-15.8516-5.7446-1.7161-1.43-5.8276-4.8745-6.2809-10.3808-.0832-.9177-.4528-6.6623,3.5522-9.57,3.0983-2.2526,6.9839-1.4541,8.7478-1.0845,4.6358.9534,4.9814,3.2059,10.6548,6.0067,2.6578,1.311,7.4606,3.6827,13.3842,3.0034a15.6537,15.6537,0,0,0,9.57-4.1c4.4932-4.3621,4.3977-10.2735,4.3744-11.4773a18.8245,18.8245,0,0,0-4.1-10.9291c-7.9848-11.0243-23.0019-13.5629-28.4245-14.4806a69.1563,69.1563,0,0,0-37.4353,4.374c-5.3993,2.2168-21.0356,8.891-31.1545,25.41-3.0749,5.0176-8.0448,13.1339-7.6514,24.3251.3812,10.75,5.4942,18.3541,7.9255,21.858,4.3146,6.2332,13.48,14.3973,36.8872,23.5028,14.4567,5.6254,28.7824,6.3763,56.85,7.6515,18.9377.87,40.1641,1.74,68.3151-1.6328a356.4029,356.4029,0,0,0,39.9022-7.1033q124.623-1.3765,249.2343-2.7412a530.9651,530.9651,0,0,0,40.7245-132.8167c4.91-29.5572,10.6193-65.4907,4.91-112.0434-3.4922-28.4845-10.0356-50.9742-14.7552-66.9566a502.8932,502.8932,0,0,0-32.5249-82.5338A144.6517,144.6517,0,0,0,1547.9867,380.3246ZM1225.7894,319.84a16.9686,16.9686,0,0,1-7.1748,2.4193c-4.6364.3576-8.1519-1.5851-10.5832-2.9676a33.5321,33.5321,0,0,1-12.2162-12.4783c-6.8891-11.8468-5.59-24.0749-5.03-29.4024a57.9476,57.9476,0,0,1,8.0448-23.61c6.4-11.2627,12.3832-13.9681,14.111-14.6713,2.1695-.882,5.8643-2.3241,9.0225-.5482,3.5755,2.0141,4.1475,6.7695,4.2307,7.6276.2864,2.9319-.7507,4.2429-2.5861,10.25l-.0122.0119c-1.8949,5.1249-3.5633,12.0851-3.2776,23.6339.2747,10.7979.4057,16.1969,3.8979,20.3563a18.1135,18.1135,0,0,0,6.9717,4.9938c3.3136,1.3587,4.4216.7508,4.982,1.7758C1237.6122,309.8044,1232.0226,316.4191,1225.7894,319.84Zm102.1628-45.8852c3.5993-12.5857,10.4884-20.0584,14.4334-24.2537,8.6878-9.2127,14.6592-9.8563,17.2215-9.8444,1.3588.0119,4.1358.0715,5.6495,1.9189,1.9786,2.4193.5482,6.3523-.9777,11.4057,0,0-.3812,1.2752-4.2424,16.8762-2.9562,11.9778-.6081,22.3228.6192,27.7456,2.05,9.046,4.2907,18.9262,12.1569,22.2633a17.1248,17.1248,0,0,0,10.798.4767c5.2561-1.3944,8.26-4.8388,12.3709-9.7014a62.9291,62.9291,0,0,0,9.761-15.9109,71.8025,71.8025,0,0,0,5.2678-20.9045,84.9954,84.9954,0,0,0,.4772-14.2185c.0355-.1311.6436-2.4075,2.5739-2.908a3.3583,3.3583,0,0,1,2.3482.31c2.1572,1.2038,2.3,4.9342,2.3242,6.8411a75.4582,75.4582,0,0,1-9.2965,38.6628c-4.2785,7.6753-13.4913,24.23-32.2508,29.7956-2.3.6792-24.0867,6.7814-39.7-6.4836C1317.8339,309.3277,1326.8081,277.9589,1327.9522,273.9544ZM1264.19,343.9859a10.504,10.504,0,0,1-5.0652,4.5051,10.2572,10.2572,0,0,1-6.6266.2741,9.9711,9.9711,0,0,1-3.1344-1.6447,14.4245,14.4245,0,0,1-3.8973-4.6362c-1.0725-1.7281-1.6091-2.622-1.573-3.7662a6.06,6.06,0,0,1,1.2989-3.1345,17.3233,17.3233,0,0,1,3.48-3.9687c2.3-1.907,3.6709-3.0392,5.6018-3.206,3.4323-.31,6.1377,2.6577,8.14,4.8506,1.5614,1.7163,3.2414,3.5517,3.2775,6.2095A8.3664,8.3664,0,0,1,1264.19,343.9859ZM1275.25,96.9328a178.6664,178.6664,0,0,0-30.3322,18.7236c1.7761-11.8467,4.5648-29.1162,8.7484-49.8778,9.6417-47.9471,13.8724-51.165,16.2561-51.2365,3.2059-.1072,5.7088,5.3513,15.8516,31.8336,6.2925,16.4352,11.4416,30.2842,15.1718,40.4505A176.8052,176.8052,0,0,0,1275.25,96.9328Zm60.1393,316.0239q-12.5857-9.8325-24.7542-18.5805,1.6089-1.4839,3.2182-2.9676,11.6919,10.3866,23.4547,20.9522,12.2994,11.0482,24.3847,22.0606Q1349.2327,423.82,1335.3894,412.9567Zm26.7445-21.1072a399.061,399.061,0,0,0-38.079-16.1254c.3579-1.1679.7152-2.3359,1.0609-3.5039,8.9741,3.7423,22.2035,9.606,37.7094,17.83,23.7172,12.5856,41.0341,24.4681,41.0341,24.8494C1403.7167,415.15,1386.96,403.8869,1362.1339,391.85Zm22.2035-21.5243a491.074,491.074,0,0,0-57.1476-15.2077c.0716-1.1918.1548-2.3836.238-3.5635a422.5806,422.5806,0,0,1,57.8512,16.3876c27.5312,9.9636,49.02,20.9522,48.8292,21.3932C1433.93,389.7519,1413.4184,379.9551,1384.3374,370.3252Zm95.8824-202.753c-7.9616-6.9722-16.6855-14.135-26.2323-21.31-12.18-9.1532-23.9913-17.0788-35.1227-23.92,4.4693-12.0136,10.4284-29.14,16.3515-50.1042,8.9148-31.5357,12.0136-51.4868,17.8057-51.5464,2.8609-.0358,5.3039,4.7673,10.25,19.677,10.095,30.4392,17.246,51.9992,18.581,85.2631A266.4829,266.4829,0,0,1,1480.22,167.5722Z" fill="#dae2e6"/><path d="M2023.9957,144.9708v527.72H545.4258c173.34-263.26,385.08-256.49,512.36-189.08,136.94,72.53,415.91,118.58,508-90.88a551.3606,551.3606,0,0,1,53.02-94.39,486.6388,486.6388,0,0,0,34.66,65.23q40.6949-17.205,81.4-34.39c-17.33-18.27-47.12-53.51-60.55-97.18,30.93-30.88,65.49-56.6,102.74-75.22q12.72-6.375,25.85-11.6C1870.6758,118.1808,1946.126,114.6008,2023.9957,144.9708Z" fill="#fbfcfc"/><ellipse cx="740.4205" cy="677.8029" rx="5.4742" ry="4.3303" transform="translate(-131.3112 1175.5209) rotate(-72.1963)" fill="#502c58"/><path d="M803.9036,640.7468a6.2824,6.2824,0,0,1-4.0225.641,3.9322,3.9322,0,0,1-2.8256-1.9907c-1.093-2.1271.2008-4.9717,2.89-6.3535a6.2826,6.2826,0,0,1,4.0226-.641,3.7256,3.7256,0,0,1,2.7989,5.447A6.2825,6.2825,0,0,1,803.9036,640.7468Z" fill="#502c58" fill-rule="evenodd"/><path d="M801.7257,652.63a6.2821,6.2821,0,0,1-4.0514-.422,3.7254,3.7254,0,0,1-1.2938-5.9857,6.5406,6.5406,0,0,1,7.5669-1.6355,3.7254,3.7254,0,0,1,1.2938,5.9857A6.2821,6.2821,0,0,1,801.7257,652.63Z" fill="#502c58" fill-rule="evenodd"/><ellipse cx="782.0974" cy="627.7561" rx="5.4742" ry="4.3303" transform="matrix(0.3058, -0.9521, 0.9521, 0.3058, -54.7274, 1180.4571)" fill="#502c58"/><path d="M797.3533,630.1845a6.2822,6.2822,0,0,1-3.1632,2.5664,3.7255,3.7255,0,0,1-5.1474-3.3177,6.2825,6.2825,0,0,1,1.031-3.9407c1.638-2.5412,4.5953-3.5509,6.6055-2.2552S798.9912,627.6433,797.3533,630.1845Z" fill="#502c58" fill-rule="evenodd"/><path d="M792.0352,637.9087a5.8537,5.8537,0,0,0-8.2635-.5742,5.4429,5.4429,0,0,0-.7953.9094c-2.6881-2.1655-6.0784-2.4055-8.1042-.5737a5.1974,5.1974,0,0,0-1.568,4.3095,8.423,8.423,0,0,0,2.2245,4.955,8.65,8.65,0,0,0,3.9456,2.5207A8.6483,8.6483,0,0,0,781.59,653.62a8.4226,8.4226,0,0,0,4.7139,2.6981,5.1973,5.1973,0,0,0,4.4421-1.1395c2.0678-1.88,2.1105-5.3847.1012-8.2985a5.5144,5.5144,0,0,0,.9521-.6915A5.86,5.86,0,0,0,792.0352,637.9087Z" fill="#502c58" fill-rule="evenodd"/><path d="M855.1631,588.2876a6.2824,6.2824,0,0,1-4.0225.641,3.9322,3.9322,0,0,1-2.8256-1.9907c-1.093-2.1272.2008-4.9718,2.89-6.3535a6.2819,6.2819,0,0,1,4.0226-.641,3.7255,3.7255,0,0,1,2.7989,5.4469A6.2827,6.2827,0,0,1,855.1631,588.2876Z" fill="#502c58" fill-rule="evenodd"/><path d="M852.9852,600.17a6.2814,6.2814,0,0,1-4.0514-.4219,3.7255,3.7255,0,0,1-1.2938-5.9858,6.541,6.541,0,0,1,7.5669-1.6355,3.7255,3.7255,0,0,1,1.2938,5.9858A6.2822,6.2822,0,0,1,852.9852,600.17Z" fill="#502c58" fill-rule="evenodd"/><ellipse cx="833.3569" cy="575.2969" rx="5.4742" ry="4.3303" transform="translate(30.806 1192.8422) rotate(-72.1962)" fill="#502c58"/><path d="M848.6128,577.7253a6.2822,6.2822,0,0,1-3.1632,2.5664,3.7255,3.7255,0,0,1-5.1474-3.3178,6.2824,6.2824,0,0,1,1.031-3.9406c1.638-2.5412,4.5953-3.5509,6.6055-2.2552S850.2507,575.1841,848.6128,577.7253Z" fill="#502c58" fill-rule="evenodd"/><path d="M843.2947,585.4494a5.8537,5.8537,0,0,0-8.2635-.5741,5.4389,5.4389,0,0,0-.7953.9094c-2.6881-2.1656-6.0784-2.4056-8.1042-.5737a5.1972,5.1972,0,0,0-1.568,4.3094,8.4233,8.4233,0,0,0,2.2245,4.9551,8.6517,8.6517,0,0,0,3.9456,2.5207,8.6492,8.6492,0,0,0,2.1156,4.1647,8.423,8.423,0,0,0,4.7139,2.698,5.1972,5.1972,0,0,0,4.4421-1.1394c2.0678-1.88,2.1105-5.3848.1012-8.2986a5.5139,5.5139,0,0,0,.9521-.6914A5.86,5.86,0,0,0,843.2947,585.4494Z" fill="#502c58" fill-rule="evenodd"/><path d="M916.2063,538.6a6.2824,6.2824,0,0,1-4.0225.641,3.9322,3.9322,0,0,1-2.8256-1.9907c-1.093-2.1271.2008-4.9717,2.89-6.3535a6.2826,6.2826,0,0,1,4.0226-.641,3.7256,3.7256,0,0,1,2.7989,5.447A6.282,6.282,0,0,1,916.2063,538.6Z" fill="#502c58" fill-rule="evenodd"/><path d="M914.0284,550.4828a6.2821,6.2821,0,0,1-4.0514-.422,3.7254,3.7254,0,0,1-1.2938-5.9857A6.5406,6.5406,0,0,1,916.25,542.44a3.7254,3.7254,0,0,1,1.2938,5.9857A6.2821,6.2821,0,0,1,914.0284,550.4828Z" fill="#502c58" fill-rule="evenodd"/><ellipse cx="894.4001" cy="525.6093" rx="5.4742" ry="4.3303" transform="translate(120.4926 1216.4668) rotate(-72.1962)" fill="#502c58"/><path d="M909.656,528.0377a6.2822,6.2822,0,0,1-3.1632,2.5664,3.7255,3.7255,0,0,1-5.1474-3.3177,6.2825,6.2825,0,0,1,1.031-3.9407c1.638-2.5412,4.5953-3.5509,6.6055-2.2552S911.2939,525.4965,909.656,528.0377Z" fill="#502c58" fill-rule="evenodd"/><path d="M904.3379,535.7619a5.8537,5.8537,0,0,0-8.2635-.5742,5.4429,5.4429,0,0,0-.7953.9094c-2.6881-2.1655-6.0784-2.4055-8.1042-.5737a5.1974,5.1974,0,0,0-1.568,4.3095,8.423,8.423,0,0,0,2.2245,4.955,8.65,8.65,0,0,0,3.9456,2.5207,8.6483,8.6483,0,0,0,2.1156,4.1647,8.4226,8.4226,0,0,0,4.7139,2.6981,5.1974,5.1974,0,0,0,4.4421-1.1395c2.0678-1.88,2.1105-5.3847.1012-8.2985a5.5144,5.5144,0,0,0,.9521-.6915A5.86,5.86,0,0,0,904.3379,535.7619Z" fill="#502c58" fill-rule="evenodd"/><path d="M987.2343,496.8683a6.2827,6.2827,0,0,1-4.0226.641,3.9322,3.9322,0,0,1-2.8256-1.9907c-1.093-2.1272.2008-4.9717,2.89-6.3535a6.2826,6.2826,0,0,1,4.0226-.641,3.7256,3.7256,0,0,1,2.7989,5.447A6.2827,6.2827,0,0,1,987.2343,496.8683Z" fill="#502c58" fill-rule="evenodd"/><path d="M985.0563,508.7511a6.2821,6.2821,0,0,1-4.0514-.422,3.7256,3.7256,0,0,1-1.2938-5.9858,6.5412,6.5412,0,0,1,7.567-1.6355,3.7255,3.7255,0,0,1,1.2937,5.9858A6.2823,6.2823,0,0,1,985.0563,508.7511Z" fill="#502c58" fill-rule="evenodd"/><ellipse cx="965.428" cy="483.8776" rx="5.4742" ry="4.3303" transform="translate(209.5363 1255.1211) rotate(-72.1962)" fill="#502c58"/><path d="M980.6839,486.306a6.2822,6.2822,0,0,1-3.1632,2.5664,3.7255,3.7255,0,0,1-5.1474-3.3177,6.282,6.282,0,0,1,1.0311-3.9407c1.6379-2.5412,4.5952-3.5509,6.6054-2.2552S982.3218,483.7648,980.6839,486.306Z" fill="#502c58" fill-rule="evenodd"/><path d="M975.3658,494.03a5.8537,5.8537,0,0,0-8.2635-.5741,5.4475,5.4475,0,0,0-.7953.9094c-2.6881-2.1656-6.0784-2.4056-8.1042-.5737a5.1973,5.1973,0,0,0-1.568,4.3094,8.423,8.423,0,0,0,2.2245,4.9551,8.6517,8.6517,0,0,0,3.9456,2.5207,8.6483,8.6483,0,0,0,2.1156,4.1647,8.4224,8.4224,0,0,0,4.7139,2.698,5.1972,5.1972,0,0,0,4.4421-1.1394c2.0678-1.88,2.1106-5.3848.1012-8.2985a5.52,5.52,0,0,0,.9521-.6915A5.86,5.86,0,0,0,975.3658,494.03Z" fill="#502c58" fill-rule="evenodd"/><path d="M1068.4479,468.2765a6.2817,6.2817,0,0,1-4.0225.641,3.9322,3.9322,0,0,1-2.8256-1.9907c-1.093-2.1271.2008-4.9717,2.89-6.3535a6.2826,6.2826,0,0,1,4.0226-.641,3.7256,3.7256,0,0,1,2.7989,5.447A6.282,6.282,0,0,1,1068.4479,468.2765Z" fill="#502c58" fill-rule="evenodd"/><path d="M1066.27,480.1593a6.2821,6.2821,0,0,1-4.0514-.422,3.7254,3.7254,0,0,1-1.2938-5.9857,6.5406,6.5406,0,0,1,7.5669-1.6355,3.7254,3.7254,0,0,1,1.2938,5.9857A6.2821,6.2821,0,0,1,1066.27,480.1593Z" fill="#502c58" fill-rule="evenodd"/><ellipse cx="1046.6417" cy="455.2859" rx="5.4742" ry="4.3303" transform="translate(293.1407 1312.5957) rotate(-72.1962)" fill="#502c58"/><path d="M1061.8976,457.7142a6.2822,6.2822,0,0,1-3.1632,2.5664,3.7255,3.7255,0,0,1-5.1474-3.3177,6.2825,6.2825,0,0,1,1.031-3.9407c1.638-2.5412,4.5953-3.5509,6.6055-2.2552S1063.5355,455.1731,1061.8976,457.7142Z" fill="#502c58" fill-rule="evenodd"/><path d="M1056.58,465.4384a5.8538,5.8538,0,0,0-8.2635-.5742,5.4429,5.4429,0,0,0-.7953.9094c-2.6881-2.1655-6.0784-2.4055-8.1042-.5737a5.1975,5.1975,0,0,0-1.568,4.31,8.423,8.423,0,0,0,2.2245,4.955,8.65,8.65,0,0,0,3.9456,2.5207,8.6483,8.6483,0,0,0,2.1156,4.1647,8.4226,8.4226,0,0,0,4.7139,2.6981,5.1973,5.1973,0,0,0,4.4421-1.1395c2.0678-1.88,2.1105-5.3847.1012-8.2985a5.5092,5.5092,0,0,0,.9521-.6915A5.86,5.86,0,0,0,1056.58,465.4384Z" fill="#502c58" fill-rule="evenodd"/><path d="M1159.6734,457.6161a6.2824,6.2824,0,0,1-4.0225.641,3.9322,3.9322,0,0,1-2.8256-1.9907c-1.093-2.1272.2008-4.9717,2.89-6.3535a6.2817,6.2817,0,0,1,4.0225-.641,3.7255,3.7255,0,0,1,2.799,5.4469A6.2822,6.2822,0,0,1,1159.6734,457.6161Z" fill="#502c58" fill-rule="evenodd"/><path d="M1157.4955,469.4988a6.2814,6.2814,0,0,1-4.0514-.4219,3.7255,3.7255,0,0,1-1.2938-5.9858,6.541,6.541,0,0,1,7.5669-1.6355,3.7255,3.7255,0,0,1,1.2938,5.9858A6.2825,6.2825,0,0,1,1157.4955,469.4988Z" fill="#502c58" fill-rule="evenodd"/><ellipse cx="1137.8672" cy="444.6254" rx="5.4742" ry="4.3303" transform="translate(366.623 1392.0514) rotate(-72.1962)" fill="#502c58"/><path d="M1153.1231,447.0538a6.2822,6.2822,0,0,1-3.1632,2.5664,3.7255,3.7255,0,0,1-5.1474-3.3178,6.2824,6.2824,0,0,1,1.031-3.9406c1.6379-2.5412,4.5953-3.5509,6.6055-2.2552S1154.761,444.5126,1153.1231,447.0538Z" fill="#502c58" fill-rule="evenodd"/><path d="M1147.805,454.7779a5.8537,5.8537,0,0,0-8.2635-.5741,5.4429,5.4429,0,0,0-.7953.9094c-2.6881-2.1656-6.0784-2.4056-8.1042-.5737a5.1972,5.1972,0,0,0-1.568,4.3094,8.4233,8.4233,0,0,0,2.2245,4.9551,8.6517,8.6517,0,0,0,3.9456,2.5207,8.6492,8.6492,0,0,0,2.1156,4.1647,8.423,8.423,0,0,0,4.7139,2.698,5.1973,5.1973,0,0,0,4.4421-1.1394c2.0678-1.88,2.1105-5.3848.1012-8.2986a5.5139,5.5139,0,0,0,.9521-.6914A5.86,5.86,0,0,0,1147.805,454.7779Z" fill="#502c58" fill-rule="evenodd"/><path d="M1242.8707,466.57a6.2819,6.2819,0,0,1-4.0226.641,3.9322,3.9322,0,0,1-2.8255-1.9907c-1.093-2.1271.2008-4.9717,2.89-6.3535a6.2824,6.2824,0,0,1,4.0225-.641,3.7255,3.7255,0,0,1,2.7989,5.447A6.2818,6.2818,0,0,1,1242.8707,466.57Z" fill="#502c58" fill-rule="evenodd"/><path d="M1240.6927,478.453a6.2822,6.2822,0,0,1-4.0514-.422,3.7254,3.7254,0,0,1-1.2937-5.9857,6.5406,6.5406,0,0,1,7.5669-1.6355,3.7255,3.7255,0,0,1,1.2938,5.9857A6.282,6.282,0,0,1,1240.6927,478.453Z" fill="#502c58" fill-rule="evenodd"/><ellipse cx="1221.0644" cy="453.5796" rx="5.4742" ry="4.3303" transform="translate(415.8566 1477.4805) rotate(-72.1962)" fill="#502c58"/><path d="M1236.32,456.0079a6.2818,6.2818,0,0,1-3.1631,2.5665,3.7256,3.7256,0,0,1-5.1474-3.3178,6.2825,6.2825,0,0,1,1.031-3.9407c1.6379-2.5412,4.5953-3.5508,6.6055-2.2552S1237.9582,453.4668,1236.32,456.0079Z" fill="#502c58" fill-rule="evenodd"/><path d="M1231.0023,463.7321a5.8538,5.8538,0,0,0-8.2635-.5742,5.4429,5.4429,0,0,0-.7953.9094c-2.6882-2.1655-6.0785-2.4055-8.1042-.5737a5.1972,5.1972,0,0,0-1.568,4.3095,8.423,8.423,0,0,0,2.2245,4.955,8.65,8.65,0,0,0,3.9456,2.5207,8.6481,8.6481,0,0,0,2.1155,4.1647,8.4228,8.4228,0,0,0,4.714,2.6981,5.1971,5.1971,0,0,0,4.442-1.1395c2.0678-1.88,2.1106-5.3847.1013-8.2985a5.5084,5.5084,0,0,0,.952-.6915A5.86,5.86,0,0,0,1231.0023,463.7321Z" fill="#502c58" fill-rule="evenodd"/><path d="M1319.1279,489.08a6.2818,6.2818,0,0,1-4.0225.6411,3.9324,3.9324,0,0,1-2.8256-1.9907c-1.093-2.1272.2008-4.9718,2.89-6.3535a6.2811,6.2811,0,0,1,4.0225-.641,3.7253,3.7253,0,0,1,2.7989,5.4469A6.2818,6.2818,0,0,1,1319.1279,489.08Z" fill="#502c58" fill-rule="evenodd"/><path d="M1316.95,500.963a6.2824,6.2824,0,0,1-4.0515-.4219,3.7255,3.7255,0,0,1-1.2937-5.9858,6.541,6.541,0,0,1,7.5669-1.6355,3.7256,3.7256,0,0,1,1.2938,5.9858A6.2825,6.2825,0,0,1,1316.95,500.963Z" fill="#502c58" fill-rule="evenodd"/><ellipse cx="1297.3216" cy="476.0896" rx="5.4742" ry="4.3303" transform="translate(447.3655 1565.713) rotate(-72.1962)" fill="#502c58"/><path d="M1312.5775,478.518a6.2821,6.2821,0,0,1-3.1631,2.5664,3.7255,3.7255,0,0,1-5.1474-3.3178,6.2828,6.2828,0,0,1,1.031-3.9407c1.6379-2.5411,4.5953-3.5508,6.6055-2.2552S1314.2155,475.9768,1312.5775,478.518Z" fill="#502c58" fill-rule="evenodd"/><path d="M1307.26,486.2421a5.8538,5.8538,0,0,0-8.2635-.5742,5.4436,5.4436,0,0,0-.7953.91c-2.6882-2.1656-6.0785-2.4056-8.1042-.5737a5.1972,5.1972,0,0,0-1.568,4.3094,8.4235,8.4235,0,0,0,2.2245,4.9551,8.6506,8.6506,0,0,0,3.9456,2.5206,8.6489,8.6489,0,0,0,2.1155,4.1648,8.4232,8.4232,0,0,0,4.714,2.698,5.1974,5.1974,0,0,0,4.442-1.1394c2.0679-1.88,2.1106-5.3848.1013-8.2986a5.5131,5.5131,0,0,0,.952-.6914A5.86,5.86,0,0,0,1307.26,486.2421Z" fill="#502c58" fill-rule="evenodd"/><path d="M1390.4021,518.8918a6.2827,6.2827,0,0,1-4.0226.641,3.932,3.932,0,0,1-2.8255-1.9907c-1.0931-2.1272.2008-4.9717,2.89-6.3535a6.2827,6.2827,0,0,1,4.0226-.641,3.7256,3.7256,0,0,1,2.7989,5.447A6.2827,6.2827,0,0,1,1390.4021,518.8918Z" fill="#502c58" fill-rule="evenodd"/><path d="M1388.2241,530.7746a6.2821,6.2821,0,0,1-4.0514-.422,3.7255,3.7255,0,0,1-1.2938-5.9857,6.5408,6.5408,0,0,1,7.567-1.6355,3.7254,3.7254,0,0,1,1.2937,5.9857A6.2823,6.2823,0,0,1,1388.2241,530.7746Z" fill="#502c58" fill-rule="evenodd"/><ellipse cx="1368.5958" cy="505.9011" rx="5.4742" ry="4.3303" transform="translate(468.463 1654.2701) rotate(-72.1962)" fill="#502c58"/><path d="M1383.8517,508.33a6.2824,6.2824,0,0,1-3.1631,2.5664,3.7254,3.7254,0,0,1-5.1474-3.3177,6.2812,6.2812,0,0,1,1.031-3.9407c1.6379-2.5412,4.5952-3.5509,6.6054-2.2552S1385.49,505.7883,1383.8517,508.33Z" fill="#502c58" fill-rule="evenodd"/><path d="M1378.5336,516.0537a5.8537,5.8537,0,0,0-8.2635-.5742,5.4475,5.4475,0,0,0-.7953.9094c-2.6881-2.1655-6.0784-2.4056-8.1041-.5737a5.1972,5.1972,0,0,0-1.5681,4.3095,8.423,8.423,0,0,0,2.2245,4.955,8.6509,8.6509,0,0,0,3.9456,2.5207,8.6483,8.6483,0,0,0,2.1156,4.1647,8.4235,8.4235,0,0,0,4.7139,2.6981,5.1973,5.1973,0,0,0,4.4421-1.1395c2.0678-1.88,2.1106-5.3847.1012-8.2985a5.52,5.52,0,0,0,.9521-.6915A5.86,5.86,0,0,0,1378.5336,516.0537Z" fill="#502c58" fill-rule="evenodd"/><path d="M1458.65,549.7505a6.282,6.282,0,0,1-4.0226.641,3.9322,3.9322,0,0,1-2.8256-1.9907c-1.093-2.1271.2008-4.9717,2.89-6.3535a6.2826,6.2826,0,0,1,4.0226-.641,3.7256,3.7256,0,0,1,2.7989,5.447A6.2823,6.2823,0,0,1,1458.65,549.7505Z" fill="#502c58" fill-rule="evenodd"/><path d="M1456.4722,561.6333a6.2821,6.2821,0,0,1-4.0514-.422,3.7255,3.7255,0,0,1-1.2938-5.9857,6.5407,6.5407,0,0,1,7.567-1.6355,3.7254,3.7254,0,0,1,1.2937,5.9857A6.2818,6.2818,0,0,1,1456.4722,561.6333Z" fill="#502c58" fill-rule="evenodd"/><ellipse cx="1436.8439" cy="536.7599" rx="5.4742" ry="4.3303" transform="translate(486.4627 1740.6731) rotate(-72.1962)" fill="#502c58"/><path d="M1452.1,539.1882a6.2824,6.2824,0,0,1-3.1632,2.5665,3.7256,3.7256,0,0,1-5.1474-3.3178,6.282,6.282,0,0,1,1.0311-3.9407c1.6379-2.5412,4.5952-3.5508,6.6054-2.2552S1453.7377,536.6471,1452.1,539.1882Z" fill="#502c58" fill-rule="evenodd"/><path d="M1446.7817,546.9124a5.8538,5.8538,0,0,0-8.2635-.5742,5.4475,5.4475,0,0,0-.7953.9094c-2.6881-2.1655-6.0784-2.4055-8.1042-.5737a5.1975,5.1975,0,0,0-1.568,4.3095,8.423,8.423,0,0,0,2.2245,4.955,8.65,8.65,0,0,0,3.9456,2.5207,8.6483,8.6483,0,0,0,2.1156,4.1647,8.4226,8.4226,0,0,0,4.7139,2.6981,5.1973,5.1973,0,0,0,4.4421-1.1395c2.0678-1.88,2.1106-5.3847.1012-8.2985a5.5092,5.5092,0,0,0,.9521-.6915A5.86,5.86,0,0,0,1446.7817,546.9124Z" fill="#502c58" fill-rule="evenodd"/><path d="M1525.8292,575.4021a6.2826,6.2826,0,0,1-4.0226.641,3.9322,3.9322,0,0,1-2.8255-1.9907c-1.0931-2.1272.2008-4.9717,2.89-6.3535a6.2827,6.2827,0,0,1,4.0226-.641,3.7254,3.7254,0,0,1,2.7989,5.4469A6.282,6.282,0,0,1,1525.8292,575.4021Z" fill="#502c58" fill-rule="evenodd"/><path d="M1523.6512,587.2848a6.2815,6.2815,0,0,1-4.0514-.4219,3.7255,3.7255,0,0,1-1.2937-5.9858,6.541,6.541,0,0,1,7.5669-1.6355,3.7255,3.7255,0,0,1,1.2937,5.9858A6.2819,6.2819,0,0,1,1523.6512,587.2848Z" fill="#502c58" fill-rule="evenodd"/><ellipse cx="1504.0229" cy="562.4114" rx="5.4742" ry="4.3303" transform="translate(508.6779 1822.4431) rotate(-72.1962)" fill="#502c58"/><path d="M1519.2788,564.84a6.282,6.282,0,0,1-3.1631,2.5664,3.7254,3.7254,0,0,1-5.1474-3.3177,6.2819,6.2819,0,0,1,1.031-3.9407c1.6379-2.5412,4.5953-3.5509,6.6055-2.2552S1520.9167,562.2986,1519.2788,564.84Z" fill="#502c58" fill-rule="evenodd"/><path d="M1513.9608,572.5639a5.8538,5.8538,0,0,0-8.2635-.5741,5.4429,5.4429,0,0,0-.7953.9094c-2.6882-2.1656-6.0785-2.4056-8.1042-.5737a5.1974,5.1974,0,0,0-1.5681,4.3094,8.4232,8.4232,0,0,0,2.2246,4.9551,8.6517,8.6517,0,0,0,3.9456,2.5207,8.649,8.649,0,0,0,2.1155,4.1647,8.4232,8.4232,0,0,0,4.714,2.698,5.197,5.197,0,0,0,4.442-1.1394c2.0678-1.88,2.1106-5.3848.1013-8.2985a5.5228,5.5228,0,0,0,.952-.6915A5.86,5.86,0,0,0,1513.9608,572.5639Z" fill="#502c58" fill-rule="evenodd"/><path d="M1593.8962,589.5921a6.2827,6.2827,0,0,1-4.0226.641,3.932,3.932,0,0,1-2.8255-1.9907c-1.0931-2.1271.2008-4.9717,2.89-6.3535a6.2827,6.2827,0,0,1,4.0226-.641,3.7256,3.7256,0,0,1,2.7989,5.447A6.2823,6.2823,0,0,1,1593.8962,589.5921Z" fill="#502c58" fill-rule="evenodd"/><path d="M1591.7182,601.4749a6.2821,6.2821,0,0,1-4.0514-.422,3.7254,3.7254,0,0,1-1.2937-5.9857,6.5406,6.5406,0,0,1,7.5669-1.6355,3.7254,3.7254,0,0,1,1.2937,5.9857A6.2814,6.2814,0,0,1,1591.7182,601.4749Z" fill="#502c58" fill-rule="evenodd"/><ellipse cx="1572.0899" cy="576.6015" rx="5.4742" ry="4.3303" transform="translate(542.4223 1897.1015) rotate(-72.1962)" fill="#502c58"/><path d="M1587.3458,579.03a6.2824,6.2824,0,0,1-3.1631,2.5664,3.7254,3.7254,0,0,1-5.1474-3.3177,6.2819,6.2819,0,0,1,1.031-3.9407c1.6379-2.5412,4.5953-3.5508,6.6054-2.2552S1588.9837,576.4887,1587.3458,579.03Z" fill="#502c58" fill-rule="evenodd"/><path d="M1582.0277,586.754a5.8536,5.8536,0,0,0-8.2634-.5742,5.4384,5.4384,0,0,0-.7953.9094c-2.6882-2.1655-6.0785-2.4055-8.1042-.5737a5.1975,5.1975,0,0,0-1.5681,4.31,8.423,8.423,0,0,0,2.2245,4.955,8.65,8.65,0,0,0,3.9456,2.5207,8.6492,8.6492,0,0,0,2.1156,4.1647,8.4228,8.4228,0,0,0,4.714,2.6981,5.1972,5.1972,0,0,0,4.442-1.1395c2.0678-1.88,2.1106-5.3847.1013-8.2985a5.5228,5.5228,0,0,0,.952-.6915A5.86,5.86,0,0,0,1582.0277,586.754Z" fill="#502c58" fill-rule="evenodd"/><path d="M1664.8081,586.0663a6.2826,6.2826,0,0,1-4.0226.641,3.9322,3.9322,0,0,1-2.8255-1.9907c-1.093-2.1272.2008-4.9717,2.89-6.3535a6.2824,6.2824,0,0,1,4.0225-.641,3.7255,3.7255,0,0,1,2.7989,5.447A6.2823,6.2823,0,0,1,1664.8081,586.0663Z" fill="#502c58" fill-rule="evenodd"/><path d="M1662.63,597.949a6.2815,6.2815,0,0,1-4.0514-.4219,3.7255,3.7255,0,0,1-1.2937-5.9858,6.541,6.541,0,0,1,7.5669-1.6355,3.7256,3.7256,0,0,1,1.2938,5.9858A6.2825,6.2825,0,0,1,1662.63,597.949Z" fill="#502c58" fill-rule="evenodd"/><ellipse cx="1643.0018" cy="573.0756" rx="5.4742" ry="4.3303" transform="translate(595.0091 1962.1695) rotate(-72.1962)" fill="#502c58"/><path d="M1658.2577,575.504a6.2816,6.2816,0,0,1-3.1631,2.5664,3.7255,3.7255,0,0,1-5.1474-3.3177,6.2825,6.2825,0,0,1,1.031-3.9407c1.6379-2.5412,4.5953-3.5509,6.6055-2.2552S1659.8956,572.9628,1658.2577,575.504Z" fill="#502c58" fill-rule="evenodd"/><path d="M1652.94,583.2281a5.8538,5.8538,0,0,0-8.2635-.5741,5.4429,5.4429,0,0,0-.7953.9094c-2.6882-2.1656-6.0785-2.4056-8.1042-.5737a5.1973,5.1973,0,0,0-1.568,4.3094,8.423,8.423,0,0,0,2.2245,4.9551,8.6517,8.6517,0,0,0,3.9456,2.5207,8.6481,8.6481,0,0,0,2.1155,4.1647,8.4232,8.4232,0,0,0,4.714,2.698,5.197,5.197,0,0,0,4.442-1.1394c2.0678-1.88,2.1106-5.3848.1013-8.2985a5.519,5.519,0,0,0,.952-.6915A5.86,5.86,0,0,0,1652.94,583.2281Z" fill="#502c58" fill-rule="evenodd"/><path d="M1735.2435,560.9673a6.2827,6.2827,0,0,1-4.0226.641,3.932,3.932,0,0,1-2.8255-1.9907c-1.0931-2.1272.2008-4.9717,2.89-6.3535a6.2827,6.2827,0,0,1,4.0226-.641,3.7256,3.7256,0,0,1,2.7989,5.447A6.2827,6.2827,0,0,1,1735.2435,560.9673Z" fill="#502c58" fill-rule="evenodd"/><path d="M1733.0655,572.85a6.2814,6.2814,0,0,1-4.0514-.4219,3.7256,3.7256,0,0,1-1.2938-5.9858,6.5412,6.5412,0,0,1,7.567-1.6355,3.7255,3.7255,0,0,1,1.2937,5.9858A6.2822,6.2822,0,0,1,1733.0655,572.85Z" fill="#502c58" fill-rule="evenodd"/><ellipse cx="1713.4372" cy="547.9766" rx="5.4742" ry="4.3303" transform="translate(667.805 2011.8068) rotate(-72.1962)" fill="#502c58"/><path d="M1728.6931,550.405a6.2824,6.2824,0,0,1-3.1631,2.5664,3.7254,3.7254,0,0,1-5.1474-3.3177,6.2812,6.2812,0,0,1,1.031-3.9407c1.6379-2.5412,4.5953-3.5509,6.6054-2.2552S1730.331,547.8638,1728.6931,550.405Z" fill="#502c58" fill-rule="evenodd"/><path d="M1723.375,558.1292a5.8537,5.8537,0,0,0-8.2635-.5742,5.4475,5.4475,0,0,0-.7953.9094c-2.6881-2.1656-6.0784-2.4056-8.1041-.5737a5.1974,5.1974,0,0,0-1.5681,4.3094,8.423,8.423,0,0,0,2.2245,4.9551,8.6517,8.6517,0,0,0,3.9456,2.5207,8.6483,8.6483,0,0,0,2.1156,4.1647,8.4233,8.4233,0,0,0,4.7139,2.698,5.1972,5.1972,0,0,0,4.4421-1.1394c2.0678-1.88,2.1106-5.3848.1013-8.2985a5.5228,5.5228,0,0,0,.952-.6915A5.86,5.86,0,0,0,1723.375,558.1292Z" fill="#502c58" fill-rule="evenodd"/><path d="M1789.8537,521.29a6.281,6.281,0,0,1-4.0225.641,3.932,3.932,0,0,1-2.8256-1.9906c-1.093-2.1272.2008-4.9718,2.89-6.3535a6.2813,6.2813,0,0,1,4.0226-.641,3.7255,3.7255,0,0,1,2.7989,5.4469A6.282,6.282,0,0,1,1789.8537,521.29Z" fill="#502c58" fill-rule="evenodd"/><path d="M1787.6758,533.1724a6.2827,6.2827,0,0,1-4.0514-.4219,3.7255,3.7255,0,0,1-1.2938-5.9858,6.5406,6.5406,0,0,1,7.5669-1.6355,3.7255,3.7255,0,0,1,1.2938,5.9858A6.2822,6.2822,0,0,1,1787.6758,533.1724Z" fill="#502c58" fill-rule="evenodd"/><ellipse cx="1768.0475" cy="508.299" rx="5.4742" ry="4.3303" transform="translate(743.495 2036.2558) rotate(-72.1962)" fill="#502c58"/><path d="M1783.3034,510.7274a6.2827,6.2827,0,0,1-3.1632,2.5664,3.7255,3.7255,0,0,1-5.1474-3.3178,6.2828,6.2828,0,0,1,1.031-3.9407c1.638-2.5411,4.5953-3.5508,6.6055-2.2552S1784.9413,508.1862,1783.3034,510.7274Z" fill="#502c58" fill-rule="evenodd"/><path d="M1777.9853,518.4515a5.8538,5.8538,0,0,0-8.2635-.5742,5.4442,5.4442,0,0,0-.7953.9095c-2.6881-2.1656-6.0784-2.4056-8.1042-.5738a5.1975,5.1975,0,0,0-1.568,4.31,8.423,8.423,0,0,0,2.2245,4.955,8.65,8.65,0,0,0,3.9456,2.5207,8.6483,8.6483,0,0,0,2.1156,4.1647,8.4226,8.4226,0,0,0,4.7139,2.6981,5.1976,5.1976,0,0,0,4.4421-1.1394c2.0678-1.88,2.1105-5.3848.1012-8.2986a5.5139,5.5139,0,0,0,.9521-.6914A5.86,5.86,0,0,0,1777.9853,518.4515Z" fill="#502c58" fill-rule="evenodd"/><path d="M1833.2006,470.8586a6.282,6.282,0,0,1-4.0226.641,3.9317,3.9317,0,0,1-2.8255-1.9907c-1.0931-2.1271.2008-4.9717,2.89-6.3534a6.2821,6.2821,0,0,1,4.0226-.6411,3.7256,3.7256,0,0,1,2.7989,5.447A6.2823,6.2823,0,0,1,1833.2006,470.8586Z" fill="#502c58" fill-rule="evenodd"/><path d="M1831.0226,482.7414a6.2827,6.2827,0,0,1-4.0514-.4219,3.7255,3.7255,0,0,1-1.2937-5.9858,6.5406,6.5406,0,0,1,7.5669-1.6355,3.7255,3.7255,0,0,1,1.2937,5.9858A6.2819,6.2819,0,0,1,1831.0226,482.7414Z" fill="#502c58" fill-rule="evenodd"/><ellipse cx="1811.3943" cy="457.868" rx="5.4742" ry="4.3303" transform="translate(821.6038 2042.5154) rotate(-72.1962)" fill="#502c58"/><path d="M1826.65,460.2964a6.2825,6.2825,0,0,1-3.1631,2.5664,3.7254,3.7254,0,0,1-5.1474-3.3178,6.2822,6.2822,0,0,1,1.031-3.9407c1.6379-2.5411,4.5953-3.5508,6.6055-2.2552S1828.2881,457.7552,1826.65,460.2964Z" fill="#502c58" fill-rule="evenodd"/><path d="M1821.3321,468.0205a5.8536,5.8536,0,0,0-8.2634-.5742,5.4429,5.4429,0,0,0-.7953.9094c-2.6882-2.1655-6.0785-2.4055-8.1042-.5737a5.1976,5.1976,0,0,0-1.5681,4.31,8.423,8.423,0,0,0,2.2245,4.955,8.6506,8.6506,0,0,0,3.9456,2.5207,8.6492,8.6492,0,0,0,2.1156,4.1647,8.4228,8.4228,0,0,0,4.714,2.6981,5.1972,5.1972,0,0,0,4.442-1.1395c2.0678-1.88,2.1106-5.3847.1013-8.2985a5.5122,5.5122,0,0,0,.952-.6915A5.86,5.86,0,0,0,1821.3321,468.0205Z" fill="#502c58" fill-rule="evenodd"/><path d="M1871.3569,412.948a6.2824,6.2824,0,0,1-4.0225.641,3.9322,3.9322,0,0,1-2.8256-1.9907c-1.093-2.1272.2008-4.9717,2.89-6.3535a6.2817,6.2817,0,0,1,4.0225-.641,3.7254,3.7254,0,0,1,2.7989,5.4469A6.282,6.282,0,0,1,1871.3569,412.948Z" fill="#502c58" fill-rule="evenodd"/><path d="M1869.179,424.8307a6.2821,6.2821,0,0,1-4.0514-.4219,3.7255,3.7255,0,0,1-1.2938-5.9858,6.541,6.541,0,0,1,7.5669-1.6355,3.7255,3.7255,0,0,1,1.2938,5.9858A6.2825,6.2825,0,0,1,1869.179,424.8307Z" fill="#502c58" fill-rule="evenodd"/><ellipse cx="1849.5507" cy="399.9573" rx="5.4742" ry="4.3303" transform="translate(903.2306 2038.6403) rotate(-72.1962)" fill="#502c58"/><path d="M1864.8066,402.3857a6.2822,6.2822,0,0,1-3.1632,2.5664,3.7255,3.7255,0,0,1-5.1474-3.3178,6.2824,6.2824,0,0,1,1.031-3.9406c1.6379-2.5412,4.5953-3.5509,6.6055-2.2552S1866.4445,399.8445,1864.8066,402.3857Z" fill="#502c58" fill-rule="evenodd"/><path d="M1859.4885,410.11a5.8537,5.8537,0,0,0-8.2635-.5741,5.4429,5.4429,0,0,0-.7953.9094c-2.6881-2.1656-6.0785-2.4056-8.1042-.5737a5.1972,5.1972,0,0,0-1.568,4.3094,8.4233,8.4233,0,0,0,2.2245,4.9551,8.6506,8.6506,0,0,0,3.9456,2.5206,8.6489,8.6489,0,0,0,2.1155,4.1648,8.4236,8.4236,0,0,0,4.714,2.698,5.1977,5.1977,0,0,0,4.4421-1.1394c2.0678-1.88,2.1105-5.3848.1012-8.2986a5.5093,5.5093,0,0,0,.952-.6914A5.86,5.86,0,0,0,1859.4885,410.11Z" fill="#502c58" fill-rule="evenodd"/><path d="M1910.3958,350.8313a6.282,6.282,0,0,1-4.0226.641,3.9318,3.9318,0,0,1-2.8255-1.9907c-1.0931-2.1271.2007-4.9717,2.89-6.3534a6.282,6.282,0,0,1,4.0226-.6411,3.7256,3.7256,0,0,1,2.7989,5.447A6.2823,6.2823,0,0,1,1910.3958,350.8313Z" fill="#502c58" fill-rule="evenodd"/><path d="M1908.2178,362.7141a6.2821,6.2821,0,0,1-4.0514-.422,3.7255,3.7255,0,0,1-1.2938-5.9857,6.5408,6.5408,0,0,1,7.567-1.6355,3.7254,3.7254,0,0,1,1.2937,5.9857A6.2818,6.2818,0,0,1,1908.2178,362.7141Z" fill="#502c58" fill-rule="evenodd"/><ellipse cx="1888.5895" cy="337.8407" rx="5.4742" ry="4.3303" transform="translate(989.4746 2032.6855) rotate(-72.1962)" fill="#502c58"/><path d="M1903.8454,340.269a6.2824,6.2824,0,0,1-3.1632,2.5665,3.7256,3.7256,0,0,1-5.1474-3.3178,6.2821,6.2821,0,0,1,1.0311-3.9407c1.6379-2.5411,4.5952-3.5508,6.6054-2.2552S1905.4833,337.7279,1903.8454,340.269Z" fill="#502c58" fill-rule="evenodd"/><path d="M1898.5273,347.9932a5.8538,5.8538,0,0,0-8.2635-.5742,5.4475,5.4475,0,0,0-.7953.9094c-2.6881-2.1655-6.0784-2.4055-8.1041-.5737a5.1973,5.1973,0,0,0-1.5681,4.31,8.423,8.423,0,0,0,2.2245,4.955,8.65,8.65,0,0,0,3.9456,2.5207,8.6483,8.6483,0,0,0,2.1156,4.1647,8.4229,8.4229,0,0,0,4.7139,2.6981,5.1973,5.1973,0,0,0,4.4421-1.1395c2.0678-1.88,2.1106-5.3847.1012-8.2985a5.5092,5.5092,0,0,0,.9521-.6915A5.86,5.86,0,0,0,1898.5273,347.9932Z" fill="#502c58" fill-rule="evenodd"/><path d="M1956.39,287.7824a6.2824,6.2824,0,0,1-4.0225.641,3.9322,3.9322,0,0,1-2.8256-1.9907c-1.093-2.1272.2008-4.9717,2.89-6.3535a6.2826,6.2826,0,0,1,4.0226-.641,3.7256,3.7256,0,0,1,2.7989,5.447A6.2825,6.2825,0,0,1,1956.39,287.7824Z" fill="#502c58" fill-rule="evenodd"/><path d="M1954.2121,299.6652a6.2821,6.2821,0,0,1-4.0514-.422,3.7255,3.7255,0,0,1-1.2938-5.9858,6.541,6.541,0,0,1,7.5669-1.6355,3.7255,3.7255,0,0,1,1.2938,5.9858A6.2827,6.2827,0,0,1,1954.2121,299.6652Z" fill="#502c58" fill-rule="evenodd"/><ellipse cx="1934.5838" cy="274.7918" rx="5.4742" ry="4.3303" transform="translate(1081.435 2032.7059) rotate(-72.1961)" fill="#502c58"/><path d="M1949.84,277.22a6.2822,6.2822,0,0,1-3.1632,2.5664,3.7255,3.7255,0,0,1-5.1474-3.3177,6.2825,6.2825,0,0,1,1.031-3.9407c1.638-2.5412,4.5953-3.5509,6.6055-2.2552S1951.4776,274.6789,1949.84,277.22Z" fill="#502c58" fill-rule="evenodd"/><path d="M1944.5216,284.9443a5.8537,5.8537,0,0,0-8.2635-.5742,5.4429,5.4429,0,0,0-.7953.9094c-2.6881-2.1655-6.0784-2.4055-8.1042-.5737a5.1974,5.1974,0,0,0-1.568,4.31,8.423,8.423,0,0,0,2.2245,4.955,8.6509,8.6509,0,0,0,3.9456,2.5207,8.6483,8.6483,0,0,0,2.1156,4.1647,8.4224,8.4224,0,0,0,4.7139,2.698,5.1972,5.1972,0,0,0,4.4421-1.1394c2.0678-1.88,2.1105-5.3848.1012-8.2985a5.52,5.52,0,0,0,.9521-.6915A5.86,5.86,0,0,0,1944.5216,284.9443Z" fill="#502c58" fill-rule="evenodd"/><path d="M2015.4127,227.0749a6.2824,6.2824,0,0,1-4.0225.641,3.9322,3.9322,0,0,1-2.8256-1.9907c-1.093-2.1272.2008-4.9717,2.89-6.3535a6.2824,6.2824,0,0,1,4.0225-.641,3.7256,3.7256,0,0,1,2.799,5.447A6.2825,6.2825,0,0,1,2015.4127,227.0749Z" fill="#502c58" fill-rule="evenodd"/><path d="M2013.2348,238.9576a6.2814,6.2814,0,0,1-4.0514-.4219,3.7255,3.7255,0,0,1-1.2938-5.9858,6.541,6.541,0,0,1,7.5669-1.6355A3.7255,3.7255,0,0,1,2016.75,236.9,6.2825,6.2825,0,0,1,2013.2348,238.9576Z" fill="#502c58" fill-rule="evenodd"/><ellipse cx="1993.6065" cy="214.0842" rx="5.4742" ry="4.3303" transform="translate(1180.2109 2046.7562) rotate(-72.1961)" fill="#502c58"/><path d="M2008.8624,216.5126a6.2822,6.2822,0,0,1-3.1632,2.5664,3.7255,3.7255,0,0,1-5.1474-3.3177,6.2825,6.2825,0,0,1,1.031-3.9407c1.6379-2.5412,4.5953-3.5509,6.6055-2.2552S2010.5,213.9714,2008.8624,216.5126Z" fill="#502c58" fill-rule="evenodd"/><path d="M2003.5443,224.2367a5.8538,5.8538,0,0,0-8.2635-.5741,5.4429,5.4429,0,0,0-.7953.9094c-2.6881-2.1656-6.0784-2.4056-8.1042-.5737a5.1973,5.1973,0,0,0-1.568,4.3094,8.423,8.423,0,0,0,2.2245,4.9551,8.6517,8.6517,0,0,0,3.9456,2.5207,8.6483,8.6483,0,0,0,2.1156,4.1647,8.423,8.423,0,0,0,4.7139,2.698,5.1973,5.1973,0,0,0,4.4421-1.1394c2.0678-1.88,2.1105-5.3848.1012-8.2985a5.52,5.52,0,0,0,.9521-.6915A5.86,5.86,0,0,0,2003.5443,224.2367Z" fill="#502c58" fill-rule="evenodd"/><path d="M1734.8658,329.1808q-40.6949,17.19-81.4,34.39a486.6388,486.6388,0,0,1-34.66-65.23,495.0842,495.0842,0,0,1,55.51-66.34C1687.7457,275.6708,1717.5357,310.9108,1734.8658,329.1808Z" fill="#fbfcfc"/><path d="M1802.9058,145.1808c-.06,8.75-2.12,15.67-6.53,18.19-4.93,2.81-10.99-.92-19.32-6.59-12-8.18-28.7-20.39-53.53-22.85-8.85-.87-28.45-2.81-42.08,9.02-15.52,13.45-14.63,37.2-13.87,51.85a153.1467,153.1467,0,0,0,6.74,37.2,495.0842,495.0842,0,0,0-55.51,66.34c-35.19-81.07-38.42-156.81-3.06-202.22,7.29-9.35,30.42-35.67,67.12-42.01,44.22-7.63,93.36,16.31,111.47,54.3C1799.9058,120.1008,1803.0059,134.1008,1802.9058,145.1808Z" fill="#dae2e6"/></g></svg>