<svg width="103" height="93" viewBox="0 0 103 93" fill="none" xmlns="http://www.w3.org/2000/svg">
<g filter="url(#filter0_d_22_31)">
<path d="M31.7686 12.7748C31.7686 14.9508 31.2586 16.9398 30.2386 18.7418C29.2526 20.5099 27.7396 21.9379 25.6995 23.0259C23.6935 24.0799 21.2285 24.6069 18.3044 24.6069H13.3574V36.7451H3.3612V0.789574H18.3044C21.1945 0.789574 23.6425 1.29958 25.6485 2.3196C27.6886 3.33961 29.2186 4.75063 30.2386 6.55266C31.2586 8.35469 31.7686 10.4287 31.7686 12.7748ZM17.3354 16.6508C20.1575 16.6508 21.5685 15.3588 21.5685 12.7748C21.5685 10.1567 20.1575 8.8477 17.3354 8.8477H13.3574V16.6508H17.3354ZM45.5767 0.789574V21.6489C45.5767 23.5869 46.0187 25.0829 46.9027 26.137C47.8207 27.191 49.1977 27.718 51.0338 27.718C52.8698 27.718 54.2468 27.191 55.1648 26.137C56.1169 25.0489 56.5929 23.5529 56.5929 21.6489V0.789574H66.589V21.6489C66.589 24.9469 65.892 27.769 64.498 30.115C63.104 32.4271 61.1999 34.1781 58.7859 35.3681C56.4059 36.5241 53.7538 37.1021 50.8298 37.1021C47.9057 37.1021 45.2877 36.5241 42.9757 35.3681C40.6976 34.1781 38.8956 32.4271 37.5696 30.115C36.2776 27.803 35.6315 24.9809 35.6315 21.6489V0.789574H45.5767ZM100.5 12.7748C100.5 14.9508 99.9901 16.9398 98.9701 18.7418C97.9841 20.5099 96.4711 21.9379 94.431 23.0259C92.425 24.0799 89.96 24.6069 87.0359 24.6069H82.0889V36.7451H72.0927V0.789574H87.0359C89.926 0.789574 92.374 1.29958 94.38 2.3196C96.4201 3.33961 97.9501 4.75063 98.9701 6.55266C99.9901 8.35469 100.5 10.4287 100.5 12.7748ZM86.0669 16.6508C88.889 16.6508 90.3 15.3588 90.3 12.7748C90.3 10.1567 88.889 8.8477 86.0669 8.8477H82.0889V16.6508H86.0669Z" fill="#E7AB39"/>
</g>
<g filter="url(#filter1_d_22_31)">
<path d="M9.56138 57.6296C7.79756 57.6296 6.34922 57.2138 5.21636 56.3821C4.0835 55.536 3.47405 54.3314 3.38801 52.7684H7.8836C7.92662 53.299 8.08436 53.6861 8.35682 53.9299C8.62928 54.1737 8.98061 54.2956 9.41081 54.2956C9.79799 54.2956 10.1135 54.2024 10.3573 54.016C10.6154 53.8152 10.7444 53.5427 10.7444 53.1986C10.7444 52.754 10.5365 52.4099 10.1206 52.1661C9.70478 51.9223 9.0308 51.6499 8.0987 51.3487C7.10924 51.0189 6.3062 50.7034 5.68958 50.4023C5.0873 50.0868 4.55672 49.6351 4.09784 49.0471C3.6533 48.4449 3.43103 47.6633 3.43103 46.7025C3.43103 45.7274 3.67481 44.8957 4.16237 44.2074C4.64993 43.5047 5.32391 42.9741 6.18431 42.6156C7.04471 42.2571 8.01983 42.0779 9.10967 42.0779C10.8735 42.0779 12.2788 42.4938 13.3256 43.3255C14.3868 44.1429 14.9532 45.2972 15.0249 46.7886H10.4433C10.429 46.3297 10.2856 45.9855 10.0131 45.7561C9.75497 45.5267 9.41798 45.4119 9.00212 45.4119C8.68664 45.4119 8.42852 45.5052 8.22776 45.6916C8.027 45.878 7.92662 46.1433 7.92662 46.4874C7.92662 46.7742 8.03417 47.0252 8.24927 47.2403C8.47871 47.4411 8.75834 47.6203 9.08816 47.778C9.41798 47.9214 9.90554 48.1079 10.5508 48.3373C11.5116 48.6671 12.3003 48.9969 12.9169 49.3268C13.5479 49.6422 14.0857 50.094 14.5302 50.6819C14.9891 51.2555 15.2185 51.9868 15.2185 52.8759C15.2185 53.7793 14.9891 54.5896 14.5302 55.3066C14.0857 56.0236 13.4332 56.59 12.5728 57.0058C11.7267 57.4217 10.7229 57.6296 9.56138 57.6296ZM21.3944 42.3145V57.4791H17.1784V42.3145H21.3944ZM37.8413 57.4791H33.6254L28.0113 49.0041V57.4791H23.7953V42.3145H28.0113L33.6254 50.897V42.3145H37.8413V57.4791ZM51.6647 42.3145V45.6701H47.6208V57.4791H43.4049V45.6701H39.404V42.3145H51.6647ZM62.818 55.0054H57.4405L56.6231 57.4791H52.192L57.7201 42.3145H62.5814L68.0879 57.4791H63.6354L62.818 55.0054ZM61.764 51.7789L60.1292 46.8746L58.516 51.7789H61.764ZM83.5081 57.4791H79.2921L73.678 49.0041V57.4791H69.4621V42.3145H73.678L79.2921 50.897V42.3145H83.5081V57.4791ZM95.5892 47.3048C95.3454 46.9033 95.0084 46.595 94.5782 46.3799C94.1623 46.1648 93.6676 46.0572 93.094 46.0572C92.0329 46.0572 91.194 46.4014 90.5773 47.0897C89.9751 47.778 89.6739 48.703 89.6739 49.8645C89.6739 51.1695 89.9966 52.1661 90.6419 52.8544C91.3015 53.5284 92.2551 53.8654 93.5027 53.8654C94.9797 53.8654 96.0337 53.1986 96.6647 51.865H92.4272V48.832H100.3V52.9189C99.9701 53.722 99.4825 54.4748 98.8372 55.1775C98.2062 55.8802 97.4032 56.4609 96.4281 56.9198C95.4529 57.3643 94.3416 57.5866 93.094 57.5866C91.574 57.5866 90.226 57.264 89.0501 56.6187C87.8886 55.959 86.9852 55.0484 86.3399 53.8869C85.7089 52.711 85.3934 51.3702 85.3934 49.8645C85.3934 48.3732 85.7089 47.0467 86.3399 45.8852C86.9852 44.7093 87.8886 43.7987 89.0501 43.1534C90.2117 42.4938 91.5525 42.1639 93.0725 42.1639C94.9797 42.1639 96.5571 42.6228 97.8047 43.5406C99.0523 44.4583 99.8267 45.7131 100.128 47.3048H95.5892Z" fill="#E7AB39"/>
</g>
<g filter="url(#filter2_d_22_31)">
<path d="M23.7302 71.6669C23.7302 73.2264 23.3647 74.6519 22.6337 75.9434C21.927 77.2105 20.8427 78.234 19.3806 79.0137C17.9429 79.7691 16.1763 80.1468 14.0807 80.1468H10.5352V88.8461H3.37108V63.0773H14.0807C16.1519 63.0773 17.9064 63.4428 19.3441 64.1738C20.8061 64.9049 21.9027 65.9161 22.6337 67.2076C23.3647 68.4991 23.7302 69.9855 23.7302 71.6669ZM13.3862 74.4448C15.4087 74.4448 16.4199 73.5188 16.4199 71.6669C16.4199 69.7906 15.4087 68.8524 13.3862 68.8524H10.5352V74.4448H13.3862ZM33.6263 63.0773V78.0268C33.6263 79.4158 33.943 80.488 34.5766 81.2434C35.2345 81.9988 36.2214 82.3765 37.5373 82.3765C38.8531 82.3765 39.84 81.9988 40.4979 81.2434C41.1802 80.4636 41.5214 79.3914 41.5214 78.0268V63.0773H48.6854V78.0268C48.6854 80.3905 48.1859 82.413 47.1868 84.0944C46.1878 85.7514 44.8232 87.0063 43.0931 87.8592C41.3873 88.6877 39.4867 89.1019 37.391 89.1019C35.2954 89.1019 33.4191 88.6877 31.7621 87.8592C30.1295 87.0063 28.838 85.7514 27.8877 84.0944C26.9617 82.4374 26.4987 80.4149 26.4987 78.0268V63.0773H33.6263ZM62.3525 89.1019C59.3553 89.1019 56.8942 88.3953 54.9692 86.9819C53.0441 85.5443 52.0085 83.4974 51.8623 80.8413H59.5015C59.5746 81.7429 59.8427 82.4008 60.3057 82.8151C60.7686 83.2293 61.3657 83.4365 62.0967 83.4365C62.7546 83.4365 63.2907 83.2781 63.7049 82.9613C64.1436 82.6201 64.3629 82.1572 64.3629 81.5723C64.3629 80.8169 64.0095 80.2321 63.3029 79.8179C62.5962 79.4036 61.4509 78.9406 59.867 78.4289C58.1857 77.8685 56.8211 77.3324 55.7733 76.8206C54.7498 76.2846 53.8482 75.517 53.0685 74.5179C52.3131 73.4945 51.9354 72.1664 51.9354 70.5338C51.9354 68.8768 52.3496 67.4635 53.1781 66.2938C54.0066 65.0998 55.1519 64.1982 56.614 63.589C58.076 62.9798 59.733 62.6752 61.585 62.6752C64.5822 62.6752 66.9702 63.3819 68.749 64.7952C70.5522 66.1842 71.5148 68.1458 71.6366 70.68H63.8512C63.8268 69.9002 63.5831 69.3154 63.1201 68.9255C62.6815 68.5357 62.1089 68.3407 61.4022 68.3407C60.8661 68.3407 60.4275 68.4991 60.0864 68.8159C59.7452 69.1327 59.5746 69.5835 59.5746 70.1683C59.5746 70.6556 59.7574 71.0821 60.1229 71.4476C60.5128 71.7887 60.988 72.0933 61.5484 72.3614C62.1089 72.605 62.9374 72.9218 64.0339 73.3117C65.6665 73.8722 67.0068 74.4326 68.0546 74.9931C69.1267 75.5292 70.0405 76.2967 70.7959 77.2958C71.5757 78.2705 71.9656 79.5133 71.9656 81.0241C71.9656 82.5592 71.5757 83.936 70.7959 85.1544C70.0405 86.3728 68.9318 87.3353 67.4697 88.0419C66.0321 88.7486 64.3263 89.1019 62.3525 89.1019ZM91.598 84.6427H82.4601L81.0712 88.8461H73.5416L82.9353 63.0773H91.1959L100.553 88.8461H92.9869L91.598 84.6427ZM89.807 79.1599L87.0291 70.8262L84.2877 79.1599H89.807Z" fill="#E7AB39"/>
</g>
<defs>
<filter id="filter0_d_22_31" x="1.32451" y="0.498594" width="101.212" height="40.386" filterUnits="userSpaceOnUse" color-interpolation-filters="sRGB">
<feFlood flood-opacity="0" result="BackgroundImageFix"/>
<feColorMatrix in="SourceAlpha" type="matrix" values="0 0 0 0 0 0 0 0 0 0 0 0 0 0 0 0 0 0 127 0" result="hardAlpha"/>
<feOffset dy="1.74574"/>
<feGaussianBlur stdDeviation="1.01835"/>
<feComposite in2="hardAlpha" operator="out"/>
<feColorMatrix type="matrix" values="0 0 0 0 0 0 0 0 0 0 0 0 0 0 0 0 0 0 0.25 0"/>
<feBlend mode="normal" in2="BackgroundImageFix" result="effect1_dropShadow_22_31"/>
<feBlend mode="normal" in="SourceGraphic" in2="effect1_dropShadow_22_31" result="shape"/>
</filter>
<filter id="filter1_d_22_31" x="1.35136" y="41.7869" width="100.985" height="19.6252" filterUnits="userSpaceOnUse" color-interpolation-filters="sRGB">
<feFlood flood-opacity="0" result="BackgroundImageFix"/>
<feColorMatrix in="SourceAlpha" type="matrix" values="0 0 0 0 0 0 0 0 0 0 0 0 0 0 0 0 0 0 127 0" result="hardAlpha"/>
<feOffset dy="1.74574"/>
<feGaussianBlur stdDeviation="1.01835"/>
<feComposite in2="hardAlpha" operator="out"/>
<feColorMatrix type="matrix" values="0 0 0 0 0 0 0 0 0 0 0 0 0 0 0 0 0 0 0.25 0"/>
<feBlend mode="normal" in2="BackgroundImageFix" result="effect1_dropShadow_22_31"/>
<feBlend mode="normal" in="SourceGraphic" in2="effect1_dropShadow_22_31" result="shape"/>
</filter>
<filter id="filter2_d_22_31" x="1.3344" y="62.3843" width="101.255" height="30.5001" filterUnits="userSpaceOnUse" color-interpolation-filters="sRGB">
<feFlood flood-opacity="0" result="BackgroundImageFix"/>
<feColorMatrix in="SourceAlpha" type="matrix" values="0 0 0 0 0 0 0 0 0 0 0 0 0 0 0 0 0 0 127 0" result="hardAlpha"/>
<feOffset dy="1.74574"/>
<feGaussianBlur stdDeviation="1.01835"/>
<feComposite in2="hardAlpha" operator="out"/>
<feColorMatrix type="matrix" values="0 0 0 0 0 0 0 0 0 0 0 0 0 0 0 0 0 0 0.25 0"/>
<feBlend mode="normal" in2="BackgroundImageFix" result="effect1_dropShadow_22_31"/>
<feBlend mode="normal" in="SourceGraphic" in2="effect1_dropShadow_22_31" result="shape"/>
</filter>
</defs>
</svg>
