<svg width="96" height="86" viewBox="0 0 96 86" fill="none" xmlns="http://www.w3.org/2000/svg">
<g filter="url(#filter0_d_9_342)">
<path d="M29.847 11.8801C29.847 13.8834 29.3774 15.7145 28.4384 17.3735C27.5306 19.0012 26.1377 20.3159 24.2596 21.3175C22.4128 22.2879 20.1434 22.7731 17.4515 22.7731H12.8971V33.9478H3.69433V0.846174H17.4515C20.1121 0.846174 22.3658 1.3157 24.2127 2.25476C26.0908 3.19381 27.4993 4.49283 28.4384 6.15183C29.3774 7.81082 29.847 9.72023 29.847 11.8801ZM16.5594 15.4485C19.1574 15.4485 20.4564 14.259 20.4564 11.8801C20.4564 9.46982 19.1574 8.2647 16.5594 8.2647H12.8971V15.4485H16.5594ZM42.559 0.846174V20.0498C42.559 21.834 42.966 23.2113 43.7798 24.1817C44.625 25.152 45.8927 25.6372 47.583 25.6372C49.2733 25.6372 50.541 25.152 51.3861 24.1817C52.2626 23.18 52.7008 21.8027 52.7008 20.0498V0.846174H61.9035V20.0498C61.9035 23.0861 61.2619 25.6841 59.9785 27.844C58.6951 29.9725 56.9422 31.5845 54.7198 32.6801C52.5287 33.7444 50.0871 34.2765 47.3952 34.2765C44.7032 34.2765 42.293 33.7444 40.1645 32.6801C38.0672 31.5845 36.4082 29.9725 35.1875 27.844C33.998 25.7154 33.4033 23.1174 33.4033 20.0498V0.846174H42.559ZM93.123 11.8801C93.123 13.8834 92.6535 15.7145 91.7145 17.3735C90.8067 19.0012 89.4138 20.3159 87.5357 21.3175C85.6889 22.2879 83.4195 22.7731 80.7275 22.7731H76.1731V33.9478H66.9704V0.846174H80.7275C83.3882 0.846174 85.6419 1.3157 87.4887 2.25476C89.3668 3.19381 90.7754 4.49283 91.7145 6.15183C92.6535 7.81082 93.123 9.72023 93.123 11.8801ZM79.8354 15.4485C82.4335 15.4485 83.7325 14.259 83.7325 11.8801C83.7325 9.46982 82.4335 8.2647 79.8354 8.2647H76.1731V15.4485H79.8354Z" fill="#E7AB39"/>
</g>
<g filter="url(#filter1_d_9_342)">
<path d="M9.40236 52.5872C7.77854 52.5872 6.44515 52.2044 5.40221 51.4387C4.35927 50.6597 3.79819 49.5508 3.71898 48.1118H7.85775C7.89735 48.6003 8.04257 48.9567 8.29341 49.1811C8.54424 49.4056 8.86768 49.5178 9.26374 49.5178C9.62019 49.5178 9.91063 49.432 10.1351 49.2604C10.3727 49.0755 10.4915 48.8247 10.4915 48.5079C10.4915 48.0986 10.3001 47.7818 9.91723 47.5573C9.53437 47.3329 8.91389 47.0821 8.05577 46.8048C7.14485 46.5012 6.40555 46.2107 5.83787 45.9335C5.28339 45.6431 4.79493 45.2272 4.37247 44.6859C3.96321 44.1315 3.75859 43.412 3.75859 42.5274C3.75859 41.6297 3.98302 40.864 4.43188 40.2303C4.88074 39.5834 5.50122 39.095 6.29333 38.7649C7.08544 38.4349 7.98316 38.2699 8.9865 38.2699C10.6103 38.2699 11.9041 38.6527 12.8678 39.4184C13.8448 40.1709 14.3662 41.2337 14.4322 42.6067H10.2143C10.2011 42.1842 10.069 41.8673 9.81821 41.6561C9.58058 41.4449 9.27034 41.3393 8.88749 41.3393C8.59705 41.3393 8.35941 41.4251 8.17459 41.5967C7.98976 41.7683 7.89735 42.0126 7.89735 42.3294C7.89735 42.5934 7.99636 42.8245 8.19439 43.0225C8.40562 43.2073 8.66306 43.3724 8.9667 43.5176C9.27034 43.6496 9.7192 43.8212 10.3133 44.0324C11.1978 44.3361 11.9239 44.6397 12.4916 44.9434C13.0725 45.2338 13.5675 45.6497 13.9768 46.1909C14.3992 46.719 14.6105 47.3923 14.6105 48.2108C14.6105 49.0425 14.3992 49.7884 13.9768 50.4485C13.5675 51.1086 12.9668 51.6301 12.1747 52.0129C11.3958 52.3958 10.4717 52.5872 9.40236 52.5872ZM20.2962 38.4877V52.4486H16.4148V38.4877H20.2962ZM35.4377 52.4486H31.5563L26.3878 44.6463V52.4486H22.5065V38.4877H26.3878L31.5563 46.389V38.4877H35.4377V52.4486ZM48.1638 38.4877V41.5769H44.4409V52.4486H40.5596V41.5769H36.8763V38.4877H48.1638ZM58.4318 50.1713H53.4812L52.7287 52.4486H48.6493L53.7386 38.4877H58.214L63.2835 52.4486H59.1843L58.4318 50.1713ZM57.4615 47.2009L55.9565 42.6859L54.4713 47.2009H57.4615ZM77.4797 52.4486H73.5984L68.4299 44.6463V52.4486H64.5485V38.4877H68.4299L73.5984 46.389V38.4877H77.4797V52.4486ZM88.6019 43.0819C88.3774 42.7123 88.0672 42.4284 87.6711 42.2304C87.2883 42.0324 86.8328 41.9334 86.3048 41.9334C85.3278 41.9334 84.5555 42.2502 83.9878 42.8839C83.4334 43.5176 83.1561 44.3691 83.1561 45.4384C83.1561 46.6398 83.4532 47.5573 84.0472 48.191C84.6545 48.8115 85.5325 49.1217 86.681 49.1217C88.0408 49.1217 89.0111 48.5079 89.592 47.2801H85.6909V44.4879H92.9387V48.2504C92.635 48.9897 92.1862 49.6828 91.5921 50.3297C91.0112 50.9766 90.2719 51.5113 89.3742 51.9337C88.4765 52.343 87.4533 52.5476 86.3048 52.5476C84.9054 52.5476 83.6644 52.2506 82.5818 51.6565C81.5125 51.0492 80.6808 50.2109 80.0867 49.1415C79.5058 48.059 79.2154 46.8246 79.2154 45.4384C79.2154 44.0654 79.5058 42.8443 80.0867 41.7749C80.6808 40.6924 81.5125 39.8541 82.5818 39.26C83.6512 38.6527 84.8856 38.3491 86.285 38.3491C88.0408 38.3491 89.493 38.7715 90.6415 39.6164C91.7901 40.4614 92.503 41.6165 92.7802 43.0819H88.6019Z" fill="#E7AB39"/>
</g>
<g filter="url(#filter2_d_9_342)">
<path d="M22.4464 66.3834C22.4464 67.8191 22.1099 69.1315 21.4369 70.3205C20.7863 71.487 19.788 72.4292 18.442 73.1471C17.1184 73.8425 15.492 74.1902 13.5627 74.1902H10.2986V82.199H3.70318V58.4756H13.5627C15.4696 58.4756 17.0848 58.8121 18.4083 59.4851C19.7544 60.1581 20.7639 61.0891 21.4369 62.278C22.1099 63.467 22.4464 64.8355 22.4464 66.3834ZM12.9234 68.9408C14.7853 68.9408 15.7163 68.0883 15.7163 66.3834C15.7163 64.656 14.7853 63.7923 12.9234 63.7923H10.2986V68.9408H12.9234ZM31.5569 58.4756V72.2385C31.5569 73.5172 31.8485 74.5043 32.4318 75.1997C33.0375 75.8952 33.9461 76.2429 35.1575 76.2429C36.3689 76.2429 37.2775 75.8952 37.8832 75.1997C38.5113 74.4819 38.8254 73.4948 38.8254 72.2385V58.4756H45.4208V72.2385C45.4208 74.4146 44.9609 76.2765 44.0411 77.8245C43.1214 79.3499 41.8651 80.5053 40.2723 81.2904C38.702 82.0532 36.9522 82.4345 35.0229 82.4345C33.0936 82.4345 31.3662 82.0532 29.8407 81.2904C28.3377 80.5053 27.1487 79.3499 26.2738 77.8245C25.4213 76.299 24.9951 74.437 24.9951 72.2385V58.4756H31.5569ZM58.0031 82.4345C55.2438 82.4345 52.978 81.784 51.2058 80.4828C49.4335 79.1593 48.4801 77.2748 48.3455 74.8296H55.3784C55.4457 75.6596 55.6925 76.2653 56.1187 76.6467C56.5449 77.0281 57.0946 77.2188 57.7676 77.2188C58.3733 77.2188 58.8668 77.0729 59.2482 76.7813C59.652 76.4672 59.8539 76.041 59.8539 75.5026C59.8539 74.8072 59.5286 74.2687 58.878 73.8874C58.2274 73.506 57.1731 73.0798 55.7149 72.6087C54.167 72.0927 52.9107 71.5992 51.9461 71.1281C51.0039 70.6345 50.1738 69.9279 49.4559 69.0081C48.7605 68.0659 48.4128 66.8433 48.4128 65.3402C48.4128 63.8147 48.7942 62.5136 49.5569 61.4368C50.3196 60.3375 51.374 59.5075 52.72 58.9467C54.066 58.3858 55.5915 58.1054 57.2965 58.1054C60.0558 58.1054 62.2543 58.756 63.8919 60.0571C65.552 61.3358 66.4381 63.1417 66.5503 65.4748H59.3828C59.3603 64.7569 59.136 64.2185 58.7098 63.8596C58.306 63.5007 57.7788 63.3212 57.1282 63.3212C56.6347 63.3212 56.2309 63.467 55.9168 63.7587C55.6027 64.0503 55.4457 64.4653 55.4457 65.0037C55.4457 65.4524 55.6139 65.845 55.9504 66.1815C56.3094 66.4955 56.7468 66.776 57.2628 67.0227C57.7788 67.2471 58.5415 67.5387 59.551 67.8976C61.0541 68.4136 62.2879 68.9296 63.2525 69.4455C64.2396 69.9391 65.0809 70.6457 65.7763 71.5655C66.4942 72.4629 66.8531 73.607 66.8531 74.9978C66.8531 76.4111 66.4942 77.6786 65.7763 78.8003C65.0809 79.922 64.0602 80.8081 62.7141 81.4587C61.3906 82.1093 59.8202 82.4345 58.0031 82.4345ZM84.9272 78.3292H76.5147L75.236 82.199H68.304L76.9521 58.4756H84.5571L93.1716 82.199H86.206L84.9272 78.3292ZM83.2784 73.2817L80.721 65.6094L78.1972 73.2817H83.2784Z" fill="#E7AB39"/>
</g>
<defs>
<filter id="filter0_d_9_342" x="1.8193" y="0.578314" width="93.1788" height="37.1804" filterUnits="userSpaceOnUse" color-interpolation-filters="sRGB">
<feFlood flood-opacity="0" result="BackgroundImageFix"/>
<feColorMatrix in="SourceAlpha" type="matrix" values="0 0 0 0 0 0 0 0 0 0 0 0 0 0 0 0 0 0 127 0" result="hardAlpha"/>
<feOffset dy="1.60718"/>
<feGaussianBlur stdDeviation="0.937519"/>
<feComposite in2="hardAlpha" operator="out"/>
<feColorMatrix type="matrix" values="0 0 0 0 0 0 0 0 0 0 0 0 0 0 0 0 0 0 0.25 0"/>
<feBlend mode="normal" in2="BackgroundImageFix" result="effect1_dropShadow_9_342"/>
<feBlend mode="normal" in="SourceGraphic" in2="effect1_dropShadow_9_342" result="shape"/>
</filter>
<filter id="filter1_d_9_342" x="1.84396" y="38.002" width="92.9698" height="18.0674" filterUnits="userSpaceOnUse" color-interpolation-filters="sRGB">
<feFlood flood-opacity="0" result="BackgroundImageFix"/>
<feColorMatrix in="SourceAlpha" type="matrix" values="0 0 0 0 0 0 0 0 0 0 0 0 0 0 0 0 0 0 127 0" result="hardAlpha"/>
<feOffset dy="1.60718"/>
<feGaussianBlur stdDeviation="0.937519"/>
<feComposite in2="hardAlpha" operator="out"/>
<feColorMatrix type="matrix" values="0 0 0 0 0 0 0 0 0 0 0 0 0 0 0 0 0 0 0.25 0"/>
<feBlend mode="normal" in2="BackgroundImageFix" result="effect1_dropShadow_9_342"/>
<feBlend mode="normal" in="SourceGraphic" in2="effect1_dropShadow_9_342" result="shape"/>
</filter>
<filter id="filter2_d_9_342" x="1.82809" y="57.8375" width="93.2185" height="28.0792" filterUnits="userSpaceOnUse" color-interpolation-filters="sRGB">
<feFlood flood-opacity="0" result="BackgroundImageFix"/>
<feColorMatrix in="SourceAlpha" type="matrix" values="0 0 0 0 0 0 0 0 0 0 0 0 0 0 0 0 0 0 127 0" result="hardAlpha"/>
<feOffset dy="1.60718"/>
<feGaussianBlur stdDeviation="0.937519"/>
<feComposite in2="hardAlpha" operator="out"/>
<feColorMatrix type="matrix" values="0 0 0 0 0 0 0 0 0 0 0 0 0 0 0 0 0 0 0.25 0"/>
<feBlend mode="normal" in2="BackgroundImageFix" result="effect1_dropShadow_9_342"/>
<feBlend mode="normal" in="SourceGraphic" in2="effect1_dropShadow_9_342" result="shape"/>
</filter>
</defs>
</svg>
